<svg width="27" height="17" viewBox="0 0 27 17" fill="none" xmlns="http://www.w3.org/2000/svg">
<path d="M26.5176 5.10041C25.6582 0.563752 21.1216 0 21.1216 0H0.803206C0.130368 0 0.0479288 0.885181 0.0479288 0.885181C0.0479288 0.885181 -0.0428378 9.01836 0.0254453 14.0147C0.208644 16.7027 2.89667 16.98 2.89667 16.98C2.89667 16.98 12.0741 16.9542 16.1811 16.9242C18.8882 16.4512 19.1614 14.0738 19.1297 12.7773C23.9662 13.0462 27.3711 9.63291 26.5176 5.10041ZM14.2342 9.00004C12.851 10.6089 9.78076 13.411 9.78076 13.411C9.78076 13.411 9.6467 13.545 9.43352 13.4368C9.35108 13.376 9.31694 13.3368 9.31694 13.3368C8.82147 12.8472 5.57719 9.95351 4.83607 8.94758C4.05082 7.87587 3.68275 5.95062 4.73698 4.82728C5.79037 3.7081 8.07202 3.6215 9.58091 5.27778C9.58091 5.27778 11.3155 3.30007 13.4322 4.21107C15.544 5.1229 15.4666 7.55527 14.2342 9.00004ZM21.0874 9.52965C20.0549 9.65956 19.2188 9.55963 19.2188 9.55963V3.25344H21.1832C21.1832 3.25344 23.3741 3.86549 23.3741 6.18128C23.3741 8.30638 22.2799 9.14327 21.0874 9.52965Z" fill="white"/>
</svg>
