<svg width="15" height="27" viewBox="0 0 15 27" fill="none" xmlns="http://www.w3.org/2000/svg">
<path fill-rule="evenodd" clip-rule="evenodd" d="M12.9526 11.618C12.8807 11.2586 12.5651 10.9999 12.1986 10.9999H2.40665C2.04014 10.9999 1.72458 11.2586 1.6527 11.618L1.64021 11.6805C1.60155 11.8737 1.47584 12.0383 1.29957 12.1265C1.22343 12.1645 1.15567 12.2174 1.10028 12.2821L0.475151 13.0114C0.168537 13.3691 0 13.8247 0 14.2958V24.3641C0 24.5325 0.0271496 24.6998 0.0804038 24.8596C0.157323 25.0903 0.286912 25.3 0.458909 25.472L0.651281 25.6644C0.743185 25.7563 0.843942 25.8389 0.952084 25.911L1.47646 26.2606C1.80068 26.4767 2.18161 26.592 2.57127 26.592H12.2629C12.6328 26.592 12.9953 26.4881 13.309 26.292L13.8835 25.933C14.2249 25.7196 14.4929 25.4068 14.6515 25.0368L14.8404 24.596C14.9457 24.3503 15 24.0858 15 23.8185V14.4846C15 14.1411 14.9104 13.8036 14.74 13.5054L14.4617 13.0184C14.2979 12.7318 14.053 12.5001 13.7577 12.3525L13.3627 12.155C13.1504 12.0488 12.9991 11.8507 12.9526 11.618ZM6.33779 15.4057C6.06373 15.2686 5.76153 15.1973 5.45513 15.1973H5.27309C4.92343 15.1973 4.58159 15.3008 4.29066 15.4948C4.19361 15.5595 4.1032 15.6336 4.02073 15.7161L3.73597 16.0008C3.36584 16.3709 3.15789 16.873 3.15789 17.3964V18.291C3.15789 18.463 3.19794 18.6327 3.27486 18.7865C3.32811 18.893 3.39819 18.9902 3.48239 19.0744L6.11842 21.7105C6.89801 22.3787 8.06064 22.334 8.78668 21.608L10.8808 19.5138C10.9949 19.3997 11.0946 19.2721 11.1776 19.1337L11.3635 18.824C11.5475 18.5172 11.6447 18.1662 11.6447 17.8085V17.0102C11.6447 16.8564 11.6089 16.7046 11.5401 16.567C11.4789 16.4447 11.3931 16.3363 11.2881 16.2488L10.8121 15.8521C10.4574 15.5565 10.0103 15.3947 9.54859 15.3947H8.63524C8.4108 15.3947 8.19241 15.4675 8.01286 15.6021C7.69855 15.8379 7.27802 15.8758 6.9266 15.7001L6.33779 15.4057Z" fill="#FDFAFA"/>
<path d="M1.57895 7.5C1.70532 7.37363 1.87672 7.30263 2.05544 7.30263H12.4103C12.6783 7.30263 12.9354 7.40912 13.125 7.59868C13.3146 7.78824 13.4211 8.04534 13.4211 8.31342V8.4629C13.4211 8.73097 13.3146 8.98807 13.125 9.17763C12.9354 9.36719 12.6783 9.47368 12.4103 9.47368H2.39237C2.12429 9.47368 1.86719 9.36719 1.67763 9.17763C1.48807 8.98807 1.38158 8.73097 1.38158 8.4629V7.97649C1.38158 7.79777 1.45257 7.62637 1.57895 7.5Z" fill="#FDF6F7"/>
<path d="M4.26807 0.281264C4.57481 0.0972193 4.9258 0 5.28352 0H6.31031C6.69997 0 7.0809 0.115338 7.40511 0.33148L7.81339 0.603661C7.99786 0.726641 8.16007 0.880093 8.29309 1.05746L8.55974 1.41298C8.64053 1.52071 8.68421 1.65174 8.68421 1.78641C8.68421 2.02214 8.55102 2.23765 8.34017 2.34307L7.57407 2.72612C7.26686 2.87973 7.00505 3.11085 6.81452 3.39664L6.50202 3.86539C6.37955 4.0491 6.30153 4.2588 6.27415 4.47788L6.23918 4.7576C6.17019 5.30951 5.70103 5.72368 5.14482 5.72368C4.88155 5.72368 4.62697 5.62951 4.42708 5.45817L3.52438 4.68443C3.41217 4.58825 3.31369 4.47711 3.23171 4.35414C3.05488 4.08891 2.96053 3.77726 2.96053 3.45849V2.3739C2.96053 1.98425 3.07586 1.60331 3.29201 1.2791L3.50382 0.961381C3.66591 0.718233 3.87998 0.514114 4.13057 0.363764L4.26807 0.281264Z" fill="#FDF9FA"/>
<path d="M7.76798 3.15428C8.10649 2.9004 8.51821 2.76316 8.94134 2.76316H9.71648C10.0742 2.76316 10.4252 2.86038 10.7319 3.04442L10.8269 3.1014C11.1047 3.26808 11.3372 3.50057 11.5039 3.77837L11.5608 3.87333C11.7449 4.18007 11.8421 4.53107 11.8421 4.88878V5.99644C11.8421 6.07666 11.8234 6.15578 11.7876 6.22752C11.7 6.40258 11.5211 6.51316 11.3254 6.51316H7.74396C7.35252 6.51316 6.99468 6.292 6.81963 5.94189C6.74788 5.79839 6.71053 5.64016 6.71053 5.47972V5.13706C6.71053 4.7474 6.82586 4.36647 7.04201 4.04225L7.31419 3.63398C7.43717 3.44951 7.59062 3.2873 7.76798 3.15428Z" fill="#FDFAFA"/>
</svg>
