<svg width="19" height="19" viewBox="0 0 19 19" fill="none" xmlns="http://www.w3.org/2000/svg">
<path d="M17.6212 1L1.37876 17.9843M14.393 17.7654L1.12802 1.91338C1.0581 1.82969 1.01485 1.72945 1.00319 1.62405C0.991535 1.51865 1.01193 1.41233 1.06206 1.31717C1.11219 1.22201 1.19005 1.14184 1.28677 1.08577C1.3835 1.0297 1.49521 0.999981 1.6092 1H4.12678C4.21946 1.00013 4.31089 1.01991 4.3941 1.05785C4.47731 1.09578 4.55011 1.15087 4.60695 1.21891L17.872 17.0709C17.9419 17.1546 17.9851 17.2549 17.9968 17.3603C18.0085 17.4657 17.9881 17.572 17.9379 17.6672C17.8878 17.7623 17.81 17.8425 17.7132 17.8986C17.6165 17.9546 17.5048 17.9843 17.3908 17.9843H14.8732C14.7805 17.9842 14.6891 17.9644 14.6059 17.9265C14.5227 17.8885 14.4499 17.8335 14.393 17.7654Z" stroke="white" stroke-width="1.5" stroke-linecap="round"/>
</svg>
